HIERARCHY
ROOT hip
{
  OFFSET 0 0 0
  CHANNELS 6 Xposition Yposition Zposition Zrotation Yrotation Xrotation
  JOINT abdomen
  {
    OFFSET 0 20.6881 -0.73152
    CHANNELS 3 Zrotation Xrotation Yrotation
    JOINT chest
    {
      OFFSET 0 11.7043 -0.48768
      CHANNELS 3 Zrotation Xrotation Yrotation
      JOINT neck
      {
        OFFSET 0 22.1894 -2.19456
        CHANNELS 3 Zrotation Xrotation Yrotation
        JOINT head
        {
          OFFSET -0.24384 7.07133 1.2192
          CHANNELS 3 Zrotation Xrotation Yrotation
          JOINT leftEye
          {
            OFFSET 4.14528 8.04674 8.04672
            CHANNELS 3 Zrotation Xrotation Yrotation
            End Site
            {
              OFFSET 1 0 0
            }
          }
          JOINT rightEye
          {
            OFFSET -3.6576 8.04674 8.04672
            CHANNELS 3 Zrotation Xrotation Yrotation
            End Site
            {
              OFFSET 1 0 0
            }
          }
        }
      }
      JOINT rCollar
      {
        OFFSET -2.68224 19.2634 -4.8768
        CHANNELS 3 Zrotation Xrotation Yrotation
        JOINT rShldr
        {
          OFFSET -8.77824 -1.95073 1.46304
          CHANNELS 3 Zrotation Xrotation Yrotation
          JOINT rForeArm
          {
            OFFSET -28.1742 -1.7115 0.48768
            CHANNELS 3 Zrotation Xrotation Yrotation
            JOINT rHand
            {
              OFFSET -22.5879 0.773209 7.07136
              CHANNELS 3 Zrotation Xrotation Yrotation
              JOINT rThumb1
              {
                OFFSET -1.2192 -0.487915 3.41376
                CHANNELS 3 Zrotation Xrotation Yrotation
                JOINT rThumb2
                {
                  OFFSET -3.37035 -0.52449 3.41376
                  CHANNELS 3 Zrotation Xrotation Yrotation
                  End Site
                  {
                    OFFSET -1.78271 -1.18214 1.43049
                  }
                }
              }
              JOINT rIndex1
              {
                OFFSET -7.75947 0.938293 5.60832
                CHANNELS 3 Zrotation Xrotation Yrotation
                JOINT rIndex2
                {
                  OFFSET -2.54057 -0.884171 1.56538
                  CHANNELS 3 Zrotation Xrotation Yrotation
                  End Site
                  {
                    OFFSET -1.62519 -0.234802 1.16502
                  }
                }
              }
              JOINT rMid1
              {
                OFFSET -8.24714 1.18213 3.41376
                CHANNELS 3 Zrotation Xrotation Yrotation
                JOINT rMid2
                {
                  OFFSET -3.10165 -0.590103 1.0647
                  CHANNELS 3 Zrotation Xrotation Yrotation
                  End Site
                  {
                    OFFSET -2.48547 -0.328903 0.83742
                  }
                }
              }
              JOINT rRing1
              {
                OFFSET -8.82822 0.546677 1.51678
                CHANNELS 3 Zrotation Xrotation Yrotation
                JOINT rRing2
                {
                  OFFSET -2.60934 -0.819778 -0.0198488
                  CHANNELS 3 Zrotation Xrotation Yrotation
                  End Site
                  {
                    OFFSET -2.33842 -0.294052 0.168128
                  }
                }
              }
              JOINT rPinky1
              {
                OFFSET -8.27202 -0.0477905 -0.4584
                CHANNELS 3 Zrotation Xrotation Yrotation
                JOINT rPinky2
                {
                  OFFSET -1.82734 -0.647385 -0.700984
                  CHANNELS 3 Zrotation Xrotation Yrotation
                  End Site
                  {
                    OFFSET -1.69225 -0.51767 -0.607171
                  }
                }
              }
            }
          }
        }
      }
      JOINT lCollar
      {
        OFFSET 2.68224 19.2634 -4.8768
        CHANNELS 3 Zrotation Xrotation Yrotation
        JOINT lShldr
        {
          OFFSET 8.77824 -1.95073 1.46304
          CHANNELS 3 Zrotation Xrotation Yrotation
          JOINT lForeArm
          {
            OFFSET 28.1742 -1.7115 0.48768
            CHANNELS 3 Zrotation Xrotation Yrotation
            JOINT lHand
            {
              OFFSET 22.5879 0.773209 7.07136
              CHANNELS 3 Zrotation Xrotation Yrotation
              JOINT lThumb1
              {
                OFFSET 1.2192 -0.487915 3.41376
                CHANNELS 3 Zrotation Xrotation Yrotation
                JOINT lThumb2
                {
                  OFFSET 3.37035 -0.52449 3.41376
                  CHANNELS 3 Zrotation Xrotation Yrotation
                  End Site
                  {
                    OFFSET 1.78271 -1.18214 1.43049
                  }
                }
              }
              JOINT lIndex1
              {
                OFFSET 7.75947 0.938293 5.60832
                CHANNELS 3 Zrotation Xrotation Yrotation
                JOINT lIndex2
                {
                  OFFSET 2.54057 -0.884171 1.56538
                  CHANNELS 3 Zrotation Xrotation Yrotation
                  End Site
                  {
                    OFFSET 1.62519 -0.234802 1.16502
                  }
                }
              }
              JOINT lMid1
              {
                OFFSET 8.24714 1.18213 3.41376
                CHANNELS 3 Zrotation Xrotation Yrotation
                JOINT lMid2
                {
                  OFFSET 3.10165 -0.590103 1.0647
                  CHANNELS 3 Zrotation Xrotation Yrotation
                  End Site
                  {
                    OFFSET 2.48547 -0.328903 0.83742
                  }
                }
              }
              JOINT lRing1
              {
                OFFSET 8.82822 0.546677 1.51678
                CHANNELS 3 Zrotation Xrotation Yrotation
                JOINT lRing2
                {
                  OFFSET 2.60934 -0.819778 -0.0198488
                  CHANNELS 3 Zrotation Xrotation Yrotation
                  End Site
                  {
                    OFFSET 2.33842 -0.294052 0.168128
                  }
                }
              }
              JOINT lPinky1
              {
                OFFSET 8.27202 -0.0477905 -0.4584
                CHANNELS 3 Zrotation Xrotation Yrotation
                JOINT lPinky2
                {
                  OFFSET 1.82734 -0.647385 -0.700984
                  CHANNELS 3 Zrotation Xrotation Yrotation
                  End Site
                  {
                    OFFSET 1.69225 -0.51767 -0.607171
                  }
                }
              }
            }
          }
        }
      }
    }
  }
  JOINT rButtock
  {
    OFFSET -8.77824 4.35084 1.2192
    CHANNELS 3 Zrotation Xrotation Yrotation
    JOINT rThigh
    {
      OFFSET 0 -1.70687 -2.19456
      CHANNELS 3 Zrotation Xrotation Yrotation
      JOINT rShin
      {
        OFFSET 0 -36.8199 0.73152
        CHANNELS 3 Zrotation Xrotation Yrotation
        JOINT rFoot
        {
          OFFSET 0.73152 -45.1104 -5.12064
          CHANNELS 3 Zrotation Xrotation Yrotation
          End Site
          {
            OFFSET -1.1221 -3.69964 12.103
          }
        }
      }
    }
  }
  JOINT lButtock
  {
    OFFSET 8.77824 4.35084 1.2192
    CHANNELS 3 Zrotation Xrotation Yrotation
    JOINT lThigh
    {
      OFFSET 0 -1.70687 -2.19456
      CHANNELS 3 Zrotation Xrotation Yrotation
      JOINT lShin
      {
        OFFSET 0 -36.8199 0.73152
        CHANNELS 3 Zrotation Xrotation Yrotation
        JOINT lFoot
        {
          OFFSET -0.73152 -45.1104 -5.12064
          CHANNELS 3 Zrotation Xrotation Yrotation
          End Site
          {
            OFFSET 1.1221 -3.69964 12.103
          }
        }
      }
    }
  }
}
MOTION
Frames:	4
Frame Time:	0.03333
0.011749744415283203 54.999534606933594 0.35288700461387634 -48.256577253341675 -1.2299695238471031 -37.71541804075241 -1.6459228098392487 18.650041669607162 5.596987679600716 6.545368507504463 -11.846588999032974 4.6134766191244125 -9.064003005623817 6.921325698494911 -4.1805871948599815 3.745441362261772 -19.457782208919525 -3.9655373990535736 -5.491031035780907 -3.5829196125268936 7.349811941385269 0.9018870815634727 5.086057707667351 1.509937159717083 9.808324724435806 -0.8880908042192459 0.7886261120438576 16.703612208366394 29.286586940288544 24.62558090686798 -19.07512754201889 -7.500401213765144 48.44394564628601 5.978012233972549 5.993660241365433 4.996670745313168 -2.9586056247353554 -3.5271933674812317 -2.7580491453409195 4.733610413968563 -1.464165598154068 0.24087309837341309 3.3120205253362656 0.8303688280284405 3.0841102078557014 5.2160972356796265 0.8854153007268906 -1.8872170150279999 7.336054891347885 0.7255605049431324 4.563224092125893 -1.237766370177269 -7.976697161793709 0.5471591558307409 8.027325198054314 -2.9051391407847404 -5.174327865242958 0.9964205324649811 -10.067503899335861 -1.7725509032607079 2.8545741364359856 -11.717521101236343 1.1404692381620407 -0.07668904960155487 8.72783973813057 2.3294254392385483 2.3252535983920097 3.8059885427355766 0.8012916706502438 -43.60374391078949 22.50601351261139 -27.417717576026917 15.453757792711258 -19.14521098136902 -42.95361399650574 1.9145943224430084 5.479694679379463 -9.892916232347488 -4.037416912615299 -1.1761189810931683 -2.116209100931883 3.7971164658665657 3.6725788190960884 -6.658762916922569 4.587156102061272 4.440420493483543 1.0121570527553558 -2.0610415935516357 5.329819545149803 -9.093235731124878 5.8844346553087234 6.426856443285942 8.617473542690277 -5.834495276212692 -0.9238309040665627 -2.979959361255169 -6.086522340774536 -2.421404756605625 -10.97004309296608 -10.987242758274078 -9.95644100010395 -0.4814092442393303 -2.0357976481318474 3.3694251626729965 -10.521574392914772 -4.126968830823898 -4.377553872764111 -6.969170942902565 -2.8424207121133804 -0.7498309761285782 -5.076875165104866 -35.85283577442169 -26.614830493927002 -29.19119954109192 -27.302090227603912 40.19233077764511 21.17616891860962 3.574315756559372 -5.562685579061508 -5.203020460903645 -2.027515321969986 -0.6708050519227982 2.2444352880120277 30.486958622932434 -21.69521525502205 22.95731395483017 17.566948235034943 47.85441756248474 -10.095848813652992 -9.999920278787613 -5.662153288722038 18.52247714996338
0.017056270968168974 62.46105194091797 0.5529993772506714 -32.40186005830765 5.3953710570931435 -32.38276809453964 9.010287076234818 21.536903232336044 2.4849385768175125 2.421804741024971 -23.822050094604492 -0.4756352864205837 -14.405074417591095 8.822920694947243 -4.679719470441341 11.407193541526794 -28.907861709594727 -12.045713514089584 -18.414663076400757 -8.008207753300667 -3.965998739004135 -4.42192230373621 5.787680670619011 0.47068309038877487 3.7898795306682587 -11.33463442325592 -5.76021283864975 31.209712028503418 51.66229605674744 20.935927480459213 -34.36080873012543 -29.318363070487976 58.842650055885315 7.043777257204056 -14.06848132610321 11.861205697059631 -4.084318019449711 -7.577565014362335 -1.8066508322954178 21.95975750684738 5.51620289683342 -4.494000971317291 14.621008336544037 -4.919418096542358 9.817624613642693 -10.390040874481201 -7.599683180451393 -3.562009781599045 3.357480950653553 12.259037643671036 -7.043694779276848 0.8845905214548111 3.5792865604162216 4.16983388364315 -1.5080834180116653 -10.271480530500412 -1.4309296756982803 -4.552860707044601 5.968881994485855 0.6421050801873207 5.112068764865398 -5.694854110479355 9.257708117365837 2.7282075583934784 15.103933364152908 -11.275121569633484 15.218125730752945 8.875412195920944 0.5736525915563107 -61.98278725147247 21.526610255241394 -20.718116015195847 10.707870572805405 -19.340955913066864 -53.31447243690491 -1.8102912604808807 9.517958834767342 -14.620832651853561 -1.3761747255921364 -9.680250585079193 5.922636687755585 7.02707514166832 -0.9302097838371992 13.395732343196869 -0.8472970873117447 4.576708897948265 0.4687468707561493 -22.85257637500763 8.634263500571251 -1.415284015238285 1.430390551686287 10.700621232390404 16.424091160297394 -1.4848209545016289 1.5312593802809715 -4.568331353366375 6.076281666755676 14.69751700758934 -7.5314779579639435 -10.339886248111725 -4.830315783619881 -10.91665506362915 2.806767113506794 -7.07005150616169 -6.08070395886898 -2.74627223610878 5.062314458191395 -13.311999142169952 2.7122464030981064 -2.3450694233179092 -12.331345975399017 -24.43613111972809 -31.453406810760498 -15.392305701971054 -40.679596960544586 77.14670419692993 22.572132647037506 -7.268613427877426 -12.711000591516495 -14.506305009126663 6.138352006673813 0.8046459406614304 -1.4944782480597496 34.985066056251526 -36.970394253730774 42.41177290678024 41.37425422668457 48.725749254226685 -33.63045126199722 -8.39424803853035 -9.31182436645031 15.282400846481323
-0.003609516192227602 52.13359451293945 0.5420519672334194 -26.62787139415741 15.894754528999329 -19.24542635679245 3.4214110672473907 13.231657594442368 4.9942899495363235 3.6185527592897415 -17.468605041503906 3.85816253721714 -13.167921602725983 6.909851208329201 1.0259399190545082 10.530427023768425 -25.66131055355072 -1.506987065076828 -14.13116455078125 -5.367318168282509 3.092663437128067 -2.4753573909401894 6.4706676453351974 -2.5038116052746773 6.107265204191208 1.241946592926979 -1.8563001975417137 41.14947438240051 48.63941431045532 17.808882147073746 -19.362995624542236 -21.093116998672485 68.43455135822296 0.09513929486274719 -10.122675597667694 -0.9638199582695961 -2.6468471065163612 -10.921560823917389 -2.5760652869939804 11.82046964764595 -3.909219056367874 -1.455363929271698 7.525599226355553 1.3016061298549175 5.588853545486927 -2.170137595385313 -3.0510858446359634 -3.338458389043808 12.846503108739853 3.557956963777542 2.311396971344948 2.7968312054872513 -6.920024827122688 -0.39770261384546757 9.79548566043377 -9.762472361326218 -5.444882288575172 -1.9085834920406342 -4.86518282443285 -0.7562833651900291 12.628436833620071 -2.5677256286144257 5.4852669686079025 0.6464539468288422 13.123433142900467 -3.980414941906929 12.221626192331314 3.4969980642199516 -0.39895394816994667 -52.018643617630005 28.44011127948761 -27.488860487937927 17.410088628530502 -24.744276702404022 -58.28046977519989 8.424326330423355 8.098447993397713 -8.532534688711166 -2.2195256128907204 -11.056234538555145 0.9543596394360065 0.030962415039539337 4.200060702860355 -1.7657914012670517 8.184784278273582 0.6016858667135239 5.570914596319199 -13.2395339012146 5.470817908644676 -5.849667191505432 6.968315318226814 13.078728765249252 8.787504136562347 -3.9093930646777153 3.690383993089199 -1.0654495283961296 -7.061296105384827 6.035406142473221 -10.819351226091385 -10.96421867609024 -9.494578018784523 -10.230607688426971 -0.3736608847975731 -9.56817515194416 -11.36341854929924 -5.399298816919327 -7.3401667177677155 -12.814583480358124 4.109709486365318 0.6811382621526718 -6.287484839558601 -30.57470977306366 -33.73019188642502 -19.650800675153732 -37.26557403802872 72.43621945381165 34.13709104061127 1.6448445618152618 -15.755031555891037 -14.415952116250992 6.2842051684856415 -3.4113360196352005 1.5344438329339027 45.87017834186554 -41.7790424823761 45.099477767944336 42.98993647098541 65.84952414035797 -36.50878071784973 -8.01719918847084 -11.47145926952362 5.048111155629158
-0.006196782924234867 52.119346618652344 0.4251377545297146 -26.029124557971954 14.86649751663208 -13.678008019924164 -0.827481597661972 12.294096797704697 5.6668055802583694 6.58115990459919 -15.626406222581863 5.1990122348070145 -9.825112000107765 11.494105160236359 -1.914394162595272 8.858064338564873 -24.436495900154114 -2.5555215775966644 -13.987851440906525 -7.077757492661476 6.227071434259415 -3.405912257730961 6.659892126917839 -2.9026346281170845 10.112806409597397 0.750260129570961 2.2012919560074806 44.17215496301651 42.30597585439682 13.022493571043015 -20.295932292938232 -21.814180612564087 68.84320735931396 1.119842380285263 -9.629454910755157 -2.825305201113224 -1.6434649005532265 -8.874367475509644 -1.5855536609888077 12.740849554538727 -4.188195616006851 0.9344682097434998 8.448354229331017 0.1937626115977764 2.94132012873888 2.0232333429157734 -2.5713995844125748 -1.2213318049907684 12.563841193914413 2.8083440847694874 4.487580433487892 2.316739931702614 -5.781303718686104 3.823174461722374 6.4868199080228806 -10.568234771490097 -6.967867389321327 0.1542229950428009 -9.4989775121212 -3.2904398068785667 12.140411585569382 -2.7175484597682953 1.7958401888608932 -2.7874763309955597 11.499237567186356 0.316237136721611 3.456134609878063 2.8716732189059258 -1.2338612414896488 -59.82613563537598 31.08379304409027 -22.42191955447197 17.164017409086227 -22.38548845052719 -55.10465383529663 7.264131456613541 5.466734245419502 -9.084817618131638 -2.036808170378208 -4.530859552323818 0.5786250717937946 2.984943576157093 6.659342274069786 0.2638522535562515 4.8819442838430405 -2.2945526987314224 6.159455627202988 -9.18255865573883 5.777469500899315 -7.53512978553772 7.900061085820198 11.112680956721306 9.925501048564911 -5.1924921199679375 -1.546446718275547 -1.008659116923809 -5.043947696685791 0.8138154074549675 -11.703836470842361 -11.848585903644562 -8.283614292740822 -7.793531119823456 0.8755015209317207 -2.6965943723917007 -11.255151182413101 -4.584749490022659 -6.064593940973282 -9.147902503609657 -0.3300706297159195 0.9710957854986191 -4.591862037777901 -31.997589468955994 -31.158404052257538 -21.345071643590927 -27.662278711795807 69.63247418403625 26.66960120201111 -1.7480586469173431 -12.802772372961044 -16.831871420145035 2.17485174536705 -2.461356595158577 1.2128577008843422 50.34127593040466 -40.515469908714294 38.80451828241348 32.240495681762695 63.82435441017151 -30.396096110343933 -9.527996331453323 -9.147136732935905 5.597974732518196
